<svg width="135" height="34" viewBox="0 0 135 34" fill="none" xmlns="http://www.w3.org/2000/svg">
<rect width="135" height="34" rx="6" fill="#FF5A5F"/>
<path d="M24.9588 21V12.2727H28.1548C28.7741 12.2727 29.2869 12.375 29.6932 12.5795C30.0994 12.7812 30.4034 13.0554 30.6051 13.402C30.8068 13.7457 30.9077 14.1335 30.9077 14.5653C30.9077 14.929 30.8409 15.2358 30.7074 15.4858C30.5739 15.733 30.3949 15.9318 30.1705 16.0824C29.9489 16.2301 29.7045 16.3381 29.4375 16.4062V16.4915C29.7273 16.5057 30.0099 16.5994 30.2855 16.7727C30.5639 16.9432 30.794 17.1861 30.9759 17.5014C31.1577 17.8168 31.2486 18.2003 31.2486 18.652C31.2486 19.098 31.1435 19.4986 30.9332 19.8537C30.7259 20.206 30.4048 20.4858 29.9702 20.6932C29.5355 20.8977 28.9801 21 28.304 21H24.9588ZM26.2756 19.8707H28.1761C28.8068 19.8707 29.2585 19.7486 29.5312 19.5043C29.804 19.2599 29.9403 18.9545 29.9403 18.5881C29.9403 18.3125 29.8707 18.0597 29.7315 17.8295C29.5923 17.5994 29.3935 17.4162 29.1349 17.2798C28.8793 17.1435 28.5753 17.0753 28.223 17.0753H26.2756V19.8707ZM26.2756 16.0483H28.0398C28.3352 16.0483 28.6009 15.9915 28.8366 15.8778C29.0753 15.7642 29.2642 15.6051 29.4034 15.4006C29.5455 15.1932 29.6165 14.9489 29.6165 14.6676C29.6165 14.3068 29.4901 14.0043 29.2372 13.7599C28.9844 13.5156 28.5966 13.3935 28.0739 13.3935H26.2756V16.0483ZM35.5291 21.1321C34.8842 21.1321 34.3288 20.9943 33.8629 20.7188C33.3999 20.4403 33.0419 20.0497 32.7891 19.5469C32.5391 19.0412 32.4141 18.4489 32.4141 17.7699C32.4141 17.0994 32.5391 16.5085 32.7891 15.9972C33.0419 15.4858 33.3942 15.0866 33.8459 14.7997C34.3004 14.5128 34.8317 14.3693 35.4396 14.3693C35.8089 14.3693 36.1669 14.4304 36.5135 14.5526C36.8601 14.6747 37.1712 14.8665 37.4467 15.1278C37.7223 15.3892 37.9396 15.7287 38.0987 16.1463C38.2578 16.5611 38.3374 17.0653 38.3374 17.6591V18.1108H33.1342V17.1562H37.0888C37.0888 16.821 37.0206 16.5241 36.8842 16.2656C36.7479 16.0043 36.5561 15.7983 36.3089 15.6477C36.0646 15.4972 35.7777 15.4219 35.4482 15.4219C35.0902 15.4219 34.7777 15.5099 34.5107 15.6861C34.2464 15.8594 34.0419 16.0866 33.897 16.3679C33.755 16.6463 33.6839 16.9489 33.6839 17.2756V18.0213C33.6839 18.4588 33.7607 18.831 33.9141 19.1378C34.0703 19.4446 34.2876 19.679 34.5661 19.8409C34.8445 20 35.1697 20.0795 35.5419 20.0795C35.7834 20.0795 36.0036 20.0455 36.2024 19.9773C36.4013 19.9062 36.5732 19.8011 36.718 19.6619C36.8629 19.5227 36.9737 19.3509 37.0504 19.1463L38.2564 19.3636C38.1598 19.7187 37.9865 20.0298 37.7365 20.2969C37.4893 20.5611 37.1783 20.767 36.8033 20.9148C36.4311 21.0597 36.0064 21.1321 35.5291 21.1321ZM42.5082 21.1321C41.8746 21.1321 41.3292 20.9886 40.8718 20.7017C40.4173 20.4119 40.0678 20.0128 39.8235 19.5043C39.5792 18.9957 39.457 18.4134 39.457 17.7571C39.457 17.0923 39.582 16.5057 39.832 15.9972C40.082 15.4858 40.4343 15.0866 40.8888 14.7997C41.3434 14.5128 41.8789 14.3693 42.4954 14.3693C42.9925 14.3693 43.4357 14.4616 43.8249 14.6463C44.2141 14.8281 44.5281 15.0838 44.7667 15.4134C45.0082 15.7429 45.1516 16.1278 45.1971 16.5682H43.957C43.8888 16.2614 43.7326 15.9972 43.4883 15.7756C43.2468 15.554 42.9229 15.4432 42.5167 15.4432C42.1616 15.4432 41.8505 15.5369 41.5835 15.7244C41.3192 15.9091 41.1133 16.1733 40.9656 16.517C40.8178 16.858 40.744 17.2614 40.744 17.7273C40.744 18.2045 40.8164 18.6165 40.9613 18.9631C41.1062 19.3097 41.3107 19.5781 41.5749 19.7685C41.842 19.9588 42.1559 20.054 42.5167 20.054C42.7582 20.054 42.9769 20.0099 43.1729 19.9219C43.3718 19.831 43.538 19.7017 43.6715 19.5341C43.8079 19.3665 43.9031 19.1648 43.957 18.929H45.1971C45.1516 19.3523 45.0138 19.7301 44.7837 20.0625C44.5536 20.3949 44.2454 20.6562 43.859 20.8466C43.4755 21.0369 43.0252 21.1321 42.5082 21.1321ZM49.3168 21.1321C48.7031 21.1321 48.1676 20.9915 47.7102 20.7102C47.2528 20.429 46.8977 20.0355 46.6449 19.5298C46.392 19.0241 46.2656 18.4332 46.2656 17.7571C46.2656 17.0781 46.392 16.4844 46.6449 15.9759C46.8977 15.4673 47.2528 15.0724 47.7102 14.7912C48.1676 14.5099 48.7031 14.3693 49.3168 14.3693C49.9304 14.3693 50.4659 14.5099 50.9233 14.7912C51.3807 15.0724 51.7358 15.4673 51.9886 15.9759C52.2415 16.4844 52.3679 17.0781 52.3679 17.7571C52.3679 18.4332 52.2415 19.0241 51.9886 19.5298C51.7358 20.0355 51.3807 20.429 50.9233 20.7102C50.4659 20.9915 49.9304 21.1321 49.3168 21.1321ZM49.321 20.0625C49.7188 20.0625 50.0483 19.9574 50.3097 19.7472C50.571 19.5369 50.7642 19.2571 50.8892 18.9077C51.017 18.5582 51.081 18.1733 51.081 17.7528C51.081 17.3352 51.017 16.9517 50.8892 16.6023C50.7642 16.25 50.571 15.9673 50.3097 15.7543C50.0483 15.5412 49.7188 15.4347 49.321 15.4347C48.9205 15.4347 48.5881 15.5412 48.3239 15.7543C48.0625 15.9673 47.8679 16.25 47.7401 16.6023C47.6151 16.9517 47.5526 17.3352 47.5526 17.7528C47.5526 18.1733 47.6151 18.5582 47.7401 18.9077C47.8679 19.2571 48.0625 19.5369 48.3239 19.7472C48.5881 19.9574 48.9205 20.0625 49.321 20.0625ZM53.7901 21V14.4545H55.0131V15.5199H55.0941C55.2305 15.1591 55.4535 14.8778 55.7631 14.6761C56.0728 14.4716 56.4435 14.3693 56.8754 14.3693C57.3129 14.3693 57.6793 14.4716 57.9748 14.6761C58.2731 14.8807 58.4933 15.1619 58.6353 15.5199H58.7035C58.8597 15.1705 59.1083 14.892 59.4492 14.6847C59.7901 14.4744 60.1964 14.3693 60.668 14.3693C61.2617 14.3693 61.7461 14.5554 62.1211 14.9276C62.4989 15.2997 62.6879 15.8608 62.6879 16.6108V21H61.4137V16.7301C61.4137 16.2869 61.293 15.9659 61.0515 15.767C60.81 15.5682 60.5217 15.4688 60.1864 15.4688C59.7717 15.4688 59.4492 15.5966 59.2191 15.8523C58.989 16.1051 58.8739 16.4304 58.8739 16.8281V21H57.604V16.6491C57.604 16.294 57.4933 16.0085 57.2717 15.7926C57.0501 15.5767 56.7617 15.4688 56.4066 15.4688C56.1651 15.4688 55.9421 15.5327 55.7376 15.6605C55.5359 15.7855 55.3725 15.9602 55.2475 16.1847C55.1254 16.4091 55.0643 16.669 55.0643 16.9645V21H53.7901ZM67.2166 21.1321C66.5717 21.1321 66.0163 20.9943 65.5504 20.7188C65.0874 20.4403 64.7294 20.0497 64.4766 19.5469C64.2266 19.0412 64.1016 18.4489 64.1016 17.7699C64.1016 17.0994 64.2266 16.5085 64.4766 15.9972C64.7294 15.4858 65.0817 15.0866 65.5334 14.7997C65.9879 14.5128 66.5192 14.3693 67.1271 14.3693C67.4964 14.3693 67.8544 14.4304 68.201 14.5526C68.5476 14.6747 68.8587 14.8665 69.1342 15.1278C69.4098 15.3892 69.6271 15.7287 69.7862 16.1463C69.9453 16.5611 70.0249 17.0653 70.0249 17.6591V18.1108H64.8217V17.1562H68.7763C68.7763 16.821 68.7081 16.5241 68.5717 16.2656C68.4354 16.0043 68.2436 15.7983 67.9964 15.6477C67.7521 15.4972 67.4652 15.4219 67.1357 15.4219C66.7777 15.4219 66.4652 15.5099 66.1982 15.6861C65.9339 15.8594 65.7294 16.0866 65.5845 16.3679C65.4425 16.6463 65.3714 16.9489 65.3714 17.2756V18.0213C65.3714 18.4588 65.4482 18.831 65.6016 19.1378C65.7578 19.4446 65.9751 19.679 66.2536 19.8409C66.532 20 66.8572 20.0795 67.2294 20.0795C67.4709 20.0795 67.6911 20.0455 67.8899 19.9773C68.0888 19.9062 68.2607 19.8011 68.4055 19.6619C68.5504 19.5227 68.6612 19.3509 68.7379 19.1463L69.9439 19.3636C69.8473 19.7187 69.674 20.0298 69.424 20.2969C69.1768 20.5611 68.8658 20.767 68.4908 20.9148C68.1186 21.0597 67.6939 21.1321 67.2166 21.1321ZM76.5192 21.1449C76.1044 21.1449 75.7294 21.0682 75.3942 20.9148C75.0589 20.7585 74.7933 20.5327 74.5973 20.2372C74.4041 19.9418 74.3075 19.5795 74.3075 19.1506C74.3075 18.7812 74.3786 18.4773 74.5206 18.2386C74.6626 18 74.8544 17.8111 75.0959 17.6719C75.3374 17.5327 75.6072 17.4276 75.9055 17.3565C76.2038 17.2855 76.5078 17.2315 76.8175 17.1946C77.2095 17.1491 77.5277 17.1122 77.772 17.0838C78.0163 17.0526 78.1939 17.0028 78.3047 16.9347C78.4155 16.8665 78.4709 16.7557 78.4709 16.6023V16.5724C78.4709 16.2003 78.3658 15.9119 78.1555 15.7074C77.9482 15.5028 77.6385 15.4006 77.2266 15.4006C76.7976 15.4006 76.4595 15.4957 76.2124 15.6861C75.968 15.8736 75.799 16.0824 75.7053 16.3125L74.5078 16.0398C74.6499 15.642 74.8572 15.321 75.13 15.0767C75.4055 14.8295 75.7223 14.6506 76.0803 14.5398C76.4382 14.4261 76.8146 14.3693 77.2095 14.3693C77.4709 14.3693 77.7479 14.4006 78.0405 14.4631C78.3359 14.5227 78.6115 14.6335 78.8672 14.7955C79.1257 14.9574 79.3374 15.1889 79.5021 15.4901C79.6669 15.7884 79.7493 16.1761 79.7493 16.6534V21H78.505V20.1051H78.4538C78.3714 20.2699 78.2479 20.4318 78.0831 20.5909C77.9183 20.75 77.7067 20.8821 77.4482 20.9872C77.1896 21.0923 76.88 21.1449 76.5192 21.1449ZM76.7962 20.1222C77.1484 20.1222 77.4496 20.0526 77.6996 19.9134C77.9524 19.7741 78.1442 19.5923 78.2749 19.3679C78.4084 19.1406 78.4751 18.8977 78.4751 18.6392V17.7955C78.4297 17.8409 78.3416 17.8835 78.2109 17.9233C78.0831 17.9602 77.9368 17.9929 77.772 18.0213C77.6072 18.0469 77.4467 18.071 77.2905 18.0938C77.1342 18.1136 77.0036 18.1307 76.8984 18.1449C76.6513 18.1761 76.4254 18.2287 76.2209 18.3026C76.0192 18.3764 75.8572 18.483 75.7351 18.6222C75.6158 18.7585 75.5561 18.9403 75.5561 19.1676C75.5561 19.483 75.6726 19.7216 75.9055 19.8835C76.1385 20.0426 76.4354 20.1222 76.7962 20.1222ZM84.7244 21V12.2727H86.0412V16.0653H90.392V12.2727H91.7131V21H90.392V17.1946H86.0412V21H84.7244ZM96.2855 21.1321C95.6719 21.1321 95.1364 20.9915 94.679 20.7102C94.2216 20.429 93.8665 20.0355 93.6136 19.5298C93.3608 19.0241 93.2344 18.4332 93.2344 17.7571C93.2344 17.0781 93.3608 16.4844 93.6136 15.9759C93.8665 15.4673 94.2216 15.0724 94.679 14.7912C95.1364 14.5099 95.6719 14.3693 96.2855 14.3693C96.8991 14.3693 97.4347 14.5099 97.892 14.7912C98.3494 15.0724 98.7045 15.4673 98.9574 15.9759C99.2102 16.4844 99.3366 17.0781 99.3366 17.7571C99.3366 18.4332 99.2102 19.0241 98.9574 19.5298C98.7045 20.0355 98.3494 20.429 97.892 20.7102C97.4347 20.9915 96.8991 21.1321 96.2855 21.1321ZM96.2898 20.0625C96.6875 20.0625 97.017 19.9574 97.2784 19.7472C97.5398 19.5369 97.733 19.2571 97.858 18.9077C97.9858 18.5582 98.0497 18.1733 98.0497 17.7528C98.0497 17.3352 97.9858 16.9517 97.858 16.6023C97.733 16.25 97.5398 15.9673 97.2784 15.7543C97.017 15.5412 96.6875 15.4347 96.2898 15.4347C95.8892 15.4347 95.5568 15.5412 95.2926 15.7543C95.0313 15.9673 94.8366 16.25 94.7088 16.6023C94.5838 16.9517 94.5213 17.3352 94.5213 17.7528C94.5213 18.1733 94.5838 18.5582 94.7088 18.9077C94.8366 19.2571 95.0313 19.5369 95.2926 19.7472C95.5568 19.9574 95.8892 20.0625 96.2898 20.0625ZM105.664 16.0526L104.509 16.2571C104.461 16.1094 104.384 15.9687 104.279 15.8352C104.176 15.7017 104.037 15.5923 103.861 15.5071C103.685 15.4219 103.465 15.3793 103.201 15.3793C102.84 15.3793 102.539 15.4602 102.297 15.6222C102.056 15.7812 101.935 15.9872 101.935 16.2401C101.935 16.4588 102.016 16.6349 102.178 16.7685C102.34 16.902 102.601 17.0114 102.962 17.0966L104.002 17.3352C104.604 17.4744 105.053 17.6889 105.348 17.9787C105.644 18.2685 105.792 18.6449 105.792 19.108C105.792 19.5 105.678 19.8494 105.451 20.1562C105.226 20.4602 104.912 20.6989 104.509 20.8722C104.108 21.0455 103.644 21.1321 103.115 21.1321C102.382 21.1321 101.784 20.9759 101.321 20.6634C100.858 20.348 100.574 19.9006 100.469 19.321L101.701 19.1335C101.777 19.4545 101.935 19.6974 102.174 19.8622C102.412 20.0241 102.723 20.1051 103.107 20.1051C103.525 20.1051 103.858 20.0185 104.108 19.8452C104.358 19.669 104.483 19.4545 104.483 19.2017C104.483 18.9972 104.407 18.8253 104.253 18.6861C104.103 18.5469 103.871 18.4418 103.559 18.3707L102.451 18.1278C101.84 17.9886 101.388 17.767 101.096 17.4631C100.806 17.1591 100.661 16.7741 100.661 16.3082C100.661 15.9219 100.769 15.5838 100.985 15.294C101.201 15.0043 101.499 14.7784 101.88 14.6165C102.26 14.4517 102.696 14.3693 103.188 14.3693C103.895 14.3693 104.452 14.5227 104.858 14.8295C105.265 15.1335 105.533 15.5412 105.664 16.0526ZM110.248 14.4545V15.4773H106.673V14.4545H110.248ZM107.631 12.8864H108.906V19.0781C108.906 19.3253 108.942 19.5114 109.016 19.6364C109.09 19.7585 109.185 19.8423 109.302 19.8878C109.421 19.9304 109.55 19.9517 109.69 19.9517C109.792 19.9517 109.881 19.9446 109.958 19.9304C110.035 19.9162 110.094 19.9048 110.137 19.8963L110.367 20.9489C110.293 20.9773 110.188 21.0057 110.052 21.0341C109.915 21.0653 109.745 21.0824 109.54 21.0852C109.205 21.0909 108.893 21.0312 108.603 20.9062C108.313 20.7812 108.079 20.5881 107.9 20.3267C107.721 20.0653 107.631 19.7372 107.631 19.3423V12.8864Z" fill="white"/>
</svg>
