<svg width="24" height="24" viewBox="0 0 24 24" fill="none" xmlns="http://www.w3.org/2000/svg">
<path d="M0 12.8467V11.159C0.0519572 10.7839 0.0920212 10.4014 0.157124 10.0257C0.585301 7.57411 1.65512 5.44321 3.39161 3.6586C5.19134 1.80899 7.36039 0.638208 9.90755 0.187524C10.3207 0.114389 10.737 0.0625081 11.152 0H12.8422C12.9092 0.015002 12.9762 0.0356292 13.0444 0.0450055C13.4456 0.100013 13.8519 0.128142 14.2482 0.208777C17.4626 0.862613 20.0248 2.53345 21.8852 5.23131C23.71 7.8754 24.3385 10.8152 23.8302 13.9824C23.4677 16.2402 22.5006 18.2299 20.9813 19.937C19.1415 22.0047 16.8579 23.3068 14.1311 23.8125C13.7042 23.8912 13.2716 23.9375 12.8416 24H11.1514C11.0844 23.9844 11.0181 23.9637 10.9504 23.9537C10.4659 23.8819 9.97516 23.8387 9.4969 23.7362C7.26197 23.2682 5.21187 22.1605 3.59694 20.5483C1.78595 18.7624 0.639761 16.6165 0.18717 14.11C0.112052 13.6918 0.062599 13.2667 0 12.8467ZM11.2772 11.2915V6.37333C10.2086 6.37333 9.15636 6.37896 8.10344 6.36833C7.91565 6.36833 7.83489 6.42146 7.78419 6.60461C7.48462 7.70269 7.28021 8.82447 7.17322 9.95755C7.13003 10.3951 7.11814 10.8383 7.09122 11.289L11.2772 11.2915ZM7.08871 12.7185C7.11375 13.0973 7.13503 13.4618 7.16195 13.8262C7.25338 15.0546 7.46877 16.2708 7.80485 17.456C7.84679 17.6035 7.91314 17.6323 8.04836 17.6317C9.08625 17.6273 10.1241 17.6317 11.162 17.6285C11.199 17.6285 11.2365 17.6229 11.2797 17.6192V12.7185H7.08871ZM6.3851 6.37333C5.27772 6.37333 4.20978 6.37333 3.14122 6.38021C3.07236 6.38021 2.98097 6.46209 2.93965 6.53023C2.23706 7.67583 1.76481 8.9472 1.54933 10.2732C1.49299 10.6058 1.46857 10.9439 1.42914 11.284H5.67022C5.7372 9.62438 5.94691 7.99792 6.3851 6.37333ZM16.8711 11.284C16.8823 11.264 16.8892 11.2577 16.8892 11.2515C16.8529 9.65249 16.6144 8.06449 16.1793 6.52522C16.1374 6.37833 16.0617 6.37146 15.9446 6.37146C14.9217 6.37396 13.8993 6.37396 12.8772 6.37146H12.7107V11.284H16.8711ZM16.8911 12.7185H12.7151V17.626C13.8175 17.626 14.9017 17.626 15.9859 17.6198C16.0256 17.6121 16.0628 17.595 16.0944 17.5699C16.1261 17.5447 16.1511 17.5123 16.1674 17.4754C16.2814 17.0791 16.389 16.6809 16.4754 16.2777C16.7254 15.108 16.8646 13.9174 16.8911 12.7217V12.7185ZM17.6041 6.3727C18.046 7.99354 18.2526 9.62688 18.319 11.2777H22.5413C22.5413 11.204 22.545 11.149 22.5413 11.0952C22.53 10.9702 22.5144 10.8452 22.5 10.7233C22.3241 9.23308 21.8301 7.7979 21.0514 6.5146C20.9776 6.38958 20.8918 6.3702 20.7672 6.37083C20.0104 6.37458 19.253 6.37083 18.4961 6.37083L17.6041 6.3727ZM1.45355 12.7092C1.45355 12.8135 1.44604 12.8967 1.45355 12.9823C1.60112 14.5789 2.11522 16.12 2.95592 17.486C2.99033 17.5269 3.0331 17.56 3.08136 17.5831C3.12962 17.6062 3.18225 17.6187 3.23574 17.6198C4.17473 17.6298 5.10871 17.626 6.04519 17.626H6.3851C5.93877 16.0008 5.73657 14.3656 5.66771 12.7092H1.45355ZM17.6104 17.606C17.6444 17.615 17.6792 17.6213 17.7143 17.6248C18.7522 17.6248 19.7901 17.6292 20.8279 17.6192C20.9037 17.6192 21.0064 17.5385 21.0502 17.4667C21.57 16.6231 21.9627 15.7077 22.2158 14.75C22.3994 14.0861 22.5108 13.4044 22.5482 12.7167H18.3177C18.2532 14.3775 18.0454 16.004 17.6097 17.6067L17.6104 17.606ZM11.2797 4.96127V1.55583C10.2619 1.81836 8.49469 3.92489 8.41393 4.96127H11.2797ZM12.7095 4.95377H15.6316C14.9593 3.53671 14.2494 2.20341 12.7095 1.51582V4.95377ZM11.2778 22.4804V19.0425H8.35822C9.02928 20.4614 9.74103 21.796 11.2778 22.4804ZM15.6303 19.0469H12.7107V22.4848C14.2488 21.7953 14.9612 20.4614 15.6303 19.0469V19.0469ZM19.9065 4.97065C18.6846 3.62672 17.2836 2.6666 15.6285 2.0784C16.2501 2.93476 16.7196 3.86425 17.1058 4.83938C17.1242 4.87281 17.1501 4.90151 17.1815 4.92321C17.2129 4.94491 17.2489 4.95901 17.2867 4.9644C18.1362 4.97065 18.9863 4.97065 19.9065 4.97065ZM19.9065 19.035C18.985 19.035 18.128 19.0319 17.2717 19.0425C17.2091 19.0425 17.1258 19.135 17.0927 19.2038C16.893 19.6257 16.7265 20.0651 16.5074 20.4758C16.2413 20.9759 15.934 21.449 15.636 21.9479C17.2805 21.3334 18.6839 20.377 19.9065 19.0312V19.035ZM8.39828 2.06214C7.08996 2.40781 4.46706 4.2118 4.15344 4.96877C5.00667 4.96877 5.85676 4.96877 6.70686 4.96315C6.74449 4.95772 6.78032 4.94359 6.81151 4.92188C6.8427 4.90018 6.86839 4.8715 6.88652 4.83813C7.2715 3.85925 7.74412 2.93226 8.39828 2.06214ZM8.42019 21.966C7.74225 21.0665 7.26712 20.132 6.88026 19.1487C6.85709 19.0906 6.74004 19.0369 6.66617 19.0362C5.87054 19.0281 5.0749 19.0312 4.27864 19.0325C4.22199 19.0372 4.16573 19.0458 4.11025 19.0581C5.28546 20.3667 6.76586 21.3655 8.42019 21.966V21.966Z" fill="white"/>
</svg>
