<svg width="78" height="84" viewBox="0 0 78 84" fill="none" xmlns="http://www.w3.org/2000/svg">
<path d="M19.8232 83.5363H15.2287C15.0909 83.4524 14.9442 83.384 14.7912 83.3322C5.61975 81.2563 -1.83641 71.4176 1.58099 60.5736C3.27 55.2297 5.54098 50.1334 7.99136 45.1153C13.2538 34.3422 18.5601 23.59 23.9101 12.8589C24.9573 10.7132 26.12 8.62489 27.3931 6.60306C29.3316 3.57828 31.9876 1.39167 35.6128 0.61213C36.4573 0.429731 37.3128 0.30596 38.1639 0.153961H39.8026C40.0827 0.243249 40.3695 0.310765 40.6602 0.355901C43.3211 0.54376 45.8409 1.6145 47.8144 3.39588C49.6697 5.0505 51.0699 7.06123 52.177 9.24785C56.2092 17.2104 60.272 25.1621 64.151 33.1942C67.8332 40.8094 71.3709 48.494 74.8561 56.2112C76.5036 59.857 77.6872 63.6353 77.1205 67.7718C76.3132 73.6629 73.5347 78.2598 68.3079 81.1912C63.1993 84.0596 57.8741 83.8381 52.5555 81.7536C47.4687 79.7602 43.3797 76.3771 39.7019 72.4491C39.4992 72.1972 39.3177 71.9292 39.1593 71.6478L38.8158 71.6847C38.7035 71.9024 38.5694 72.1083 38.4155 72.2992C36.9452 73.7519 35.5231 75.2589 33.972 76.6225C30.7077 79.4866 27.0978 81.7688 22.7812 82.7611C21.7835 82.9804 20.8055 83.2736 19.8232 83.5363ZM42.4367 67.8652C42.4572 67.9332 42.4882 67.9977 42.5286 68.0563C45.8388 71.7607 49.4991 75.0178 54.1745 76.9461C56.8918 78.0665 59.6944 78.542 62.6392 77.9796C69.6403 76.6464 73.8519 68.7924 71.5416 62.6212C69.9072 58.2589 68.2248 53.9073 66.3411 49.647C60.7796 37.0528 54.5048 24.8147 48.2586 12.5571C47.4561 11.018 46.5213 9.55046 45.4647 8.17083C42.557 4.30354 35.8776 4.39039 33.0312 7.62146C31.7749 9.04652 30.7046 10.6231 29.8457 12.3139C24.8137 22.3024 19.8013 32.2909 14.9465 42.3511C12.1198 48.2139 9.56442 54.1961 6.95652 60.1567C5.5388 63.4008 5.33533 66.7513 6.51895 70.1452C8.37424 75.4369 12.9249 78.5855 18.5346 78.3705C20.7224 78.2858 22.7593 77.6149 24.713 76.6746C28.6861 74.7594 31.8869 71.8736 34.8909 68.7272C35.4881 68.1019 35.5472 67.7045 34.9893 66.9901C31.6332 62.6234 28.6446 58.0374 26.693 52.8477C25.2819 49.0781 24.5796 45.2217 25.5247 41.2241C27.2247 34.0367 33.7094 29.6852 41.1503 30.8361C46.6921 31.6916 50.4048 34.8532 52.1442 40.1731C53.155 43.2631 53.039 46.4203 52.2776 49.5558C51.2165 53.9334 49.1818 57.881 46.7468 61.6332C45.3794 63.7308 43.8872 65.772 42.4367 67.8652ZM38.9362 63.8893C39.0617 63.782 39.1815 63.6683 39.295 63.5484C41.7935 60.2131 44.1082 56.7606 45.7885 52.9389C47.0662 50.0466 48.0113 47.0913 47.7575 43.8385C47.3659 38.8442 43.7713 36.1213 40.1526 35.6979C36.4333 35.2636 32.1779 37.0789 30.7449 41.2567C29.8216 43.9557 30.0426 46.644 30.8302 49.3213C32.121 53.6967 34.4467 57.5466 37.0196 61.2641C37.6191 62.1283 38.2558 62.9665 38.9296 63.8893H38.9362Z" fill="white"/>
</svg>
