<svg width="56" height="32" viewBox="0 0 56 32" fill="none" xmlns="http://www.w3.org/2000/svg">
<rect width="56" height="32" rx="6" fill="white"/>
<path d="M34.9291 25.9999C34.7846 25.9696 34.64 25.9407 34.4959 25.9084C33.124 25.5984 32.2059 24.5557 32.043 23.1007C31.9491 22.2355 32.0219 21.3733 32.1369 20.5154C32.2383 19.7681 32.3946 19.033 32.6809 18.3366C33.0615 17.4074 33.5778 16.597 34.4645 16.1045C34.9999 15.8041 35.6011 15.6538 36.2091 15.6682C36.4025 15.6726 36.6057 15.7753 36.7822 15.8756C37.0638 16.0365 37.3313 16.2346 37.6059 16.4136C38.4353 16.9579 39.3336 17.2518 40.3207 17.1726C41.0407 17.1149 41.7063 16.864 42.3225 16.4737C42.5413 16.3358 42.7675 16.2042 42.9651 16.038C43.4673 15.6154 44.0235 15.611 44.614 15.7445C45.747 16.0042 46.5323 16.7139 47.0734 17.7585C47.5306 18.6388 47.7775 19.5921 47.884 20.5766C47.9626 21.3063 48.0013 22.0401 48 22.7745C48 24.3439 46.9636 25.6135 45.4823 25.9138C45.3495 25.9407 45.2171 25.9696 45.0847 25.997L34.9291 25.9999ZM40.0081 24.8291H40.6826C42.0315 24.8291 43.3805 24.8476 44.729 24.8203C46.1263 24.7919 46.9059 23.9326 46.8805 22.4786C46.8717 21.9003 46.834 21.3229 46.7674 20.7487C46.667 19.9016 46.4759 19.0761 46.076 18.3175C45.7099 17.6221 45.2096 17.1027 44.4413 16.9124C44.1052 16.8293 43.7963 16.821 43.5105 17.0728C43.3551 17.2103 43.1697 17.313 42.9942 17.425C41.2665 18.5337 39.474 18.6878 37.6327 17.7732C37.1633 17.5399 36.7352 17.2142 36.2851 16.9354C36.2195 16.888 36.1428 16.8601 36.0631 16.8547C35.4126 16.8811 34.8489 17.1154 34.4072 17.6314C33.9923 18.116 33.7285 18.6868 33.5459 19.2991C33.2263 20.3707 33.1366 21.4774 33.1338 22.5915C33.1338 23.3203 33.3455 23.961 33.9458 24.4055C34.3992 24.7405 34.9179 24.8271 35.4558 24.8281C36.9731 24.831 38.4905 24.8313 40.0081 24.8291Z" fill="#FF5A5F"/>
<path d="M44.5112 10.984C44.4511 13.6484 42.2371 15.7153 39.7669 15.6458C37.1957 15.5734 35.07 13.2494 35.2737 10.4357C35.4511 7.98642 37.5421 5.80075 40.2653 6.01447C42.6398 6.20032 44.6177 8.37621 44.5112 10.984Z" fill="#FF5A5F"/>
<rect x="8" y="19" width="16" height="2" rx="0.999999" fill="#FF5A5F"/>
<rect x="8" y="15" width="16" height="2" rx="0.999999" fill="#FF5A5F"/>
<rect x="8" y="11" width="16" height="2" rx="0.999999" fill="#FF5A5F"/>
</svg>
