<svg width="44" height="44" viewBox="0 0 44 44" fill="none" xmlns="http://www.w3.org/2000/svg">
<rect x="0.172852" width="42.9009" height="44" rx="6" fill="#FF5A5F"/>
<path d="M31.1582 32.0115L26.6557 27.2755L31.1582 32.0115ZM29.1509 20.9461C29.1509 23.3218 28.252 25.6002 26.6521 27.2802C25.0522 28.9601 22.8823 29.9038 20.6197 29.9038C18.357 29.9038 16.1871 28.9601 14.5872 27.2802C12.9873 25.6002 12.0884 23.3218 12.0884 20.9461C12.0884 18.5703 12.9873 16.2919 14.5872 14.612C16.1871 12.932 18.357 11.9883 20.6197 11.9883C22.8823 11.9883 25.0522 12.932 26.6521 14.612C28.252 16.2919 29.1509 18.5703 29.1509 20.9461V20.9461Z" stroke="white" stroke-width="2" stroke-linecap="round"/>
</svg>
